<?xml version="1.0" encoding="utf-8"?>
<!-- Generator: Adobe Illustrator 15.1.0, SVG Export Plug-In . SVG Version: 6.00 Build 0)  -->
<!DOCTYPE svg PUBLIC "-//W3C//DTD SVG 1.1//EN" "http://www.w3.org/Graphics/SVG/1.1/DTD/svg11.dtd">
<svg version="1.1" class="logo" xmlns="http://www.w3.org/2000/svg" xmlns:xlink="http://www.w3.org/1999/xlink" x="0px" y="0px"
	 width="350px" height="63px" viewBox="0 0 350 63" enable-background="new 0 0 350 63" xml:space="preserve">
<path fill="#ffffff" d="M284.203,16.853c0,4.6-1.633,8.562-4.898,11.885
	c-0.842,0.784-1.685,1.475-2.527,2.072c-0.293,0.246-0.591,0.444-0.896,0.597h-0.07c-0.351,0.199-0.673,0.375-0.965,0.527
	l-0.071,0.071c-0.89,0.597-1.708,1.287-2.458,2.07c-1.438,1.44-2.551,2.979-3.335,4.617c-0.89,1.873-1.41,3.898-1.562,6.074
	c-0.046,0.305-0.07,0.627-0.07,0.967v0.227c0,4.6-1.632,8.562-4.897,11.886c-1.042,1.042-2.183,1.931-3.423,2.668
	c-2.528,1.487-5.35,2.229-8.462,2.229c-3.125,0-5.951-0.742-8.479-2.229c-1.182-0.737-2.317-1.626-3.405-2.668
	c-3.266-3.323-4.898-7.286-4.898-11.886v-0.227c0-0.34-0.029-0.662-0.087-0.967c-0.141-2.176-0.656-4.201-1.545-6.074
	c-0.796-1.638-1.891-3.177-3.283-4.617c-0.784-0.783-1.621-1.474-2.511-2.07c-0.058,0-0.088-0.024-0.088-0.071
	c-0.292-0.152-0.585-0.328-0.877-0.527h-0.158c-0.293-0.152-0.592-0.351-0.896-0.597c-0.831-0.597-1.645-1.288-2.44-2.072
	c-3.323-3.323-4.985-7.285-4.985-11.885c0-4.658,1.662-8.619,4.985-11.885c1.042-1.088,2.177-1.978,3.406-2.668
	c2.48-1.533,5.307-2.3,8.479-2.3c0.444,0,0.866,0.023,1.265,0.07c2.224,0.152,4.248,0.697,6.074,1.633
	c0.351,0.152,0.672,0.322,0.965,0.509l0.088,0.087h0.07c0.293,0.199,0.591,0.398,0.896,0.597h0.07
	c0.936,0.444,1.948,0.79,3.037,1.036c1.439,0.398,2.879,0.62,4.318,0.667c1.428-0.047,2.861-0.27,4.301-0.667
	c1.088-0.246,2.13-0.591,3.125-1.036c0.292-0.199,0.585-0.398,0.877-0.597h0.089l0.07-0.087c0.292-0.188,0.614-0.357,0.965-0.509
	c1.826-0.936,3.856-1.48,6.092-1.633C266.483,0.023,266.929,0,267.42,0c3.066,0,5.863,0.767,8.392,2.3
	c1.241,0.691,2.404,1.58,3.493,2.668C282.57,8.234,284.203,12.195,284.203,16.853z M324.756,2.3c2.422,1.334,4.4,3.266,5.934,5.793
	l17.222,29.915c1.392,2.574,2.089,5.225,2.089,7.951c0,1.44-0.199,2.903-0.597,4.39c-1.241,4.447-3.862,7.835-7.865,10.164
	c-4.014,2.329-8.274,2.897-12.78,1.703c-1.041-0.292-2.054-0.661-3.036-1.106c-0.305-0.151-0.627-0.327-0.966-0.526
	c-0.398-0.245-0.749-0.438-1.054-0.579c-0.937-0.457-1.949-0.83-3.037-1.123c-1.439-0.398-2.873-0.598-4.302-0.598
	c-1.438,0-2.901,0.199-4.388,0.598c-1.042,0.293-2.054,0.666-3.037,1.123c-0.258,0.141-0.579,0.334-0.966,0.579
	c-0.352,0.199-0.673,0.375-0.966,0.526c-0.994,0.445-2.036,0.814-3.124,1.106c-4.46,1.194-8.69,0.626-12.692-1.703
	c-4.062-2.329-6.688-5.717-7.883-10.164c-0.398-1.486-0.597-2.949-0.597-4.39c-0.047-2.727,0.649-5.377,2.089-7.951l17.222-29.915
	c1.533-2.528,3.517-4.459,5.951-5.793c1.229-0.749,2.587-1.322,4.073-1.72c1.486-0.386,2.926-0.58,4.317-0.58
	c1.429,0,2.862,0.193,4.302,0.58C322.151,0.978,323.515,1.551,324.756,2.3z M83.986,2.212c2.481-1.475,5.7-2.066,9.655-1.773
	c3.968,0.246,7.508,2.674,10.622,7.286c3.171,4.553,5.799,6.876,7.882,6.969c2.13,0.105,3.342-1.55,3.634-4.968
	c0.351-3.371,1.34-5.823,2.967-7.356c1.639-1.486,4.015-2.229,7.128-2.229c3.124,0,5.945,0.743,8.461,2.229
	c1.194,0.737,2.335,1.627,3.423,2.668c0,0.047,0.024,0.07,0.07,0.07c3.22,3.277,4.828,7.215,4.828,11.814v29.264
	c0,4.646-1.655,8.608-4.969,11.885c-1.041,1.031-2.158,1.896-3.353,2.6c-0.047,0.047-0.093,0.07-0.14,0.07v0.069
	c-2.47,1.439-5.712,2.036-9.726,1.79c-3.968-0.304-7.485-2.732-10.551-7.285c-3.172-4.553-5.793-6.881-7.864-6.986
	c-2.178-0.141-3.418,1.498-3.723,4.915c-0.293,3.358-1.258,5.806-2.896,7.338c-1.686,1.487-4.062,2.229-7.128,2.229
	c-3.113,0-5.934-0.742-8.462-2.229c-1.24-0.69-2.381-1.579-3.423-2.669l-0.07-0.069c-3.218-3.265-4.828-7.204-4.828-11.815V16.853
	c0-4.658,1.632-8.619,4.898-11.885c1.088-1.088,2.23-1.978,3.423-2.668l0.07-0.087H83.986z M184.771,0
	c1.428,0.047,2.861,0.27,4.301,0.667c1.486,0.387,2.85,0.931,4.091,1.633c2.423,1.381,4.4,3.312,5.933,5.793l17.24,29.915
	c1.428,2.574,2.118,5.225,2.071,7.951c0,1.44-0.199,2.903-0.598,4.39c-1.181,4.447-3.803,7.835-7.863,10.164
	c-4.016,2.329-8.251,2.897-12.711,1.703c-1.088-0.292-2.124-0.661-3.107-1.106c-0.304-0.151-0.603-0.298-0.895-0.438
	c-0.445-0.258-0.813-0.48-1.106-0.668c-0.948-0.457-1.966-0.83-3.055-1.123c-1.439-0.398-2.873-0.598-4.301-0.598
	c-1.439,0-2.879,0.199-4.318,0.598c-1.089,0.293-2.101,0.666-3.037,1.123c-0.293,0.188-0.662,0.41-1.106,0.668
	c-0.304,0.14-0.603,0.286-0.896,0.438c-0.994,0.445-2.036,0.814-3.124,1.106c-4.459,1.194-8.69,0.626-12.693-1.703
	c-4.014-2.329-6.642-5.717-7.882-10.164c-0.386-1.486-0.579-2.949-0.579-4.39c0-2.727,0.69-5.377,2.071-7.951l17.222-29.915
	c1.533-2.481,3.517-4.412,5.951-5.793c1.24-0.702,2.599-1.246,4.073-1.633C181.892,0.27,183.331,0.047,184.771,0z M67.291,45.959
	c0,1.44-0.199,2.903-0.597,4.39c-1.24,4.447-3.868,7.835-7.882,10.164c-4.049,2.329-8.304,2.897-12.763,1.703
	c-1.042-0.292-2.06-0.661-3.055-1.106c-0.292-0.151-0.614-0.298-0.965-0.438c-0.386-0.258-0.732-0.48-1.036-0.668
	c-0.937-0.457-1.949-0.83-3.037-1.123c-1.486-0.398-2.926-0.598-4.319-0.598c-1.428,0-2.885,0.199-4.372,0.598
	c-1.041,0.293-2.06,0.666-3.054,1.123c-0.246,0.188-0.591,0.41-1.036,0.668c-0.292,0.14-0.59,0.286-0.895,0.438
	c-0.983,0.445-2.019,0.814-3.107,1.106c-4.459,1.194-8.696,0.626-12.71-1.703c-4.062-2.329-6.683-5.717-7.865-10.164
	c-0.398-1.486-0.597-2.949-0.597-4.39c-0.047-2.727,0.649-5.377,2.089-7.951L19.313,8.093c1.533-2.481,3.511-4.412,5.933-5.793
	c1.241-0.702,2.604-1.246,4.09-1.633C30.823,0.27,32.257,0.047,33.638,0c1.393,0.047,2.833,0.27,4.319,0.667
	C39.443,1.054,40.8,1.598,42.029,2.3c2.435,1.381,4.395,3.312,5.88,5.793l17.292,29.915C66.595,40.582,67.291,43.232,67.291,45.959z
	"/>
</svg>
